<svg height="511pt" viewBox="-27 1 511 511.99998" width="511pt" xmlns="http://www.w3.org/2000/svg"><path d="m256.5 412.078125v-9.949219c11.53125-8.546875 18.320312-22.0625 18.285156-36.414062v-18.285156c0-25.25-20.464844-45.714844-45.714844-45.714844-25.246093 0-45.714843 20.464844-45.714843 45.714844v18.285156c-.03125 14.355468 6.753906 27.871094 18.289062 36.414062v9.949219c-31.46875 4.585937-54.820312 31.550781-54.859375 63.351563v27.425781c0 5.050781 4.09375 9.144531 9.144532 9.144531h146.285156c5.050781 0 9.140625-4.09375 9.140625-9.144531v-27.425781c-.039063-31.800782-23.386719-58.765626-54.855469-63.351563zm36.570312 81.636719h-128v-18.285156c.03125-25.234376 20.480469-45.6875 45.714844-45.714844 5.050782 0 9.144532-4.09375 9.144532-9.144532v-23.3125c0-3.242187-1.714844-6.238281-4.507813-7.882812-8.5-4.851562-13.753906-13.875-13.78125-23.660156v-18.285156c0-15.148438 12.28125-27.429688 27.429687-27.429688 15.148438 0 27.429688 12.28125 27.429688 27.429688v18.285156c-.027344 9.785156-5.28125 18.808594-13.78125 23.660156-2.792969 1.644531-4.507812 4.640625-4.507812 7.882812v23.3125c0 5.050782 4.09375 9.144532 9.144531 9.144532 25.234375.03125 45.683593 20.480468 45.714843 45.714844zm0 0"/><path d="m165.070312 201.144531v-27.429687c-.039062-31.800782-23.386718-58.765625-54.855468-63.351563v-9.949219c11.53125-8.542968 18.320312-22.0625 18.285156-36.414062v-18.285156c0-25.25-20.46875-45.714844-45.714844-45.714844s-45.714844 20.464844-45.714844 45.714844v18.285156c-.03125 14.351562 6.753907 27.871094 18.285157 36.414062v9.949219c-31.46875 4.585938-54.816407 31.546875-54.855469 63.351563v27.425781c0 5.050781 4.09375 9.144531 9.144531 9.144531h146.285157c5.046874 0 9.140624-4.09375 9.140624-9.140625zm-18.285156-9.144531h-128v-18.285156c.03125-25.234375 20.480469-45.683594 45.714844-45.714844 5.050781 0 9.140625-4.09375 9.140625-9.144531v-23.3125c0-3.242188-1.714844-6.238281-4.507813-7.882813-8.496093-4.851562-13.75-13.875-13.777343-23.660156v-18.285156c0-15.148438 12.28125-27.429688 27.429687-27.429688 15.148438 0 27.429688 12.28125 27.429688 27.429688v18.285156c-.027344 9.785156-5.28125 18.808594-13.78125 23.660156-2.792969 1.644532-4.507813 4.640625-4.507813 7.882813v23.3125c0 5.050781 4.09375 9.144531 9.144531 9.144531 25.234376.03125 45.683594 20.480469 45.714844 45.714844zm0 0"/><path d="m402.785156 110.363281v-9.949219c11.53125-8.542968 18.320313-22.0625 18.285156-36.414062v-18.285156c0-25.25-20.464843-45.714844-45.714843-45.714844-25.246094 0-45.710938 20.464844-45.710938 45.714844v18.285156c-.035156 14.351562 6.75 27.871094 18.285157 36.414062v9.949219c-31.46875 4.585938-54.820313 31.546875-54.859376 63.351563v27.425781c0 5.050781 4.09375 9.144531 9.144532 9.144531h146.285156c5.050781 0 9.144531-4.09375 9.144531-9.144531v-27.425781c-.042969-31.800782-23.390625-58.765625-54.859375-63.351563zm36.570313 81.636719h-128v-18.285156c.03125-25.234375 20.480469-45.683594 45.714843-45.714844 5.050782 0 9.144532-4.09375 9.144532-9.144531v-23.3125c0-3.242188-1.714844-6.238281-4.507813-7.882813-8.5-4.851562-13.753906-13.875-13.78125-23.660156v-18.285156c0-15.148438 12.28125-27.429688 27.429688-27.429688 15.148437 0 27.429687 12.28125 27.429687 27.429688v18.285156c-.027344 9.785156-5.28125 18.808594-13.777344 23.660156-2.792968 1.644532-4.507812 4.640625-4.507812 7.882813v23.3125c0 5.050781 4.09375 9.144531 9.140625 9.144531 25.234375.03125 45.683594 20.480469 45.714844 45.714844zm0 0"/><path d="m416.097656 230.628906c19.128906 82.429688-17.835937 167.679688-91.082031 210.054688l9.144531 15.847656c80.214844-46.398438 120.691406-139.773438 99.710938-230.035156zm0 0"/><path d="m229.070312 82.285156c30.378907-.089844 60.339844 7.09375 87.378907 20.945313l8.320312-16.28125c-60.117187-30.585938-131.234375-30.585938-191.351562 0l8.320312 16.28125c27.023438-13.84375 56.96875-21.023438 87.332031-20.945313zm0 0"/><path d="m37.070312 274.285156c0-14.65625 1.664063-29.265625 4.957032-43.546875l-17.820313-4.125c-20.875 90.230469 19.617188 183.511719 99.785157 229.878907l9.144531-15.84375c-59.355469-34.398438-95.945313-97.761719-96.066407-166.363282zm0 0"/></svg>